<svg width="60" height="60" viewBox="0 0 60 60" fill="none" xmlns="http://www.w3.org/2000/svg">
<circle cx="29.6923" cy="29.6923" r="29.6923" fill="#609351"/>
<path d="M33.304 29.576C34.4987 29.7893 35.512 30.4187 36.344 31.464C37.176 32.5093 37.592 33.6933 37.592 35.016C37.592 36.1467 37.2933 37.1707 36.696 38.088C36.12 38.984 35.2773 39.6987 34.168 40.232C33.0587 40.744 31.768 41 30.296 41H21.4V18.76H29.88C31.3947 18.76 32.696 19.016 33.784 19.528C34.872 20.04 35.6933 20.7333 36.248 21.608C36.8027 22.4613 37.08 23.4213 37.08 24.488C37.08 25.768 36.7387 26.8347 36.056 27.688C35.3733 28.5413 34.456 29.1707 33.304 29.576ZM25.048 28.104H29.56C30.7547 28.104 31.6827 27.8373 32.344 27.304C33.0267 26.7493 33.368 25.96 33.368 24.936C33.368 23.9333 33.0267 23.1547 32.344 22.6C31.6827 22.024 30.7547 21.736 29.56 21.736H25.048V28.104ZM29.976 38.024C31.2133 38.024 32.184 37.7253 32.888 37.128C33.592 36.5307 33.944 35.6987 33.944 34.632C33.944 33.544 33.5707 32.68 32.824 32.04C32.0773 31.4 31.0853 31.08 29.848 31.08H25.048V38.024H29.976Z" fill="#EFF6FF"/>
</svg>
