<svg width="144" height="12" viewBox="0 0 144 12" fill="none" xmlns="http://www.w3.org/2000/svg">
<g id="Company Logo">
<path d="M0 11.7778V0.222222H5.59918C7.50736 0.222222 8.90715 0.479012 9.79856 0.992593C10.7039 1.4963 11.1566 2.17284 11.1566 3.02222C11.1566 3.55556 10.9546 4.02963 10.5507 4.44444C10.1607 4.85926 9.55482 5.1358 8.73305 5.27407V5.62963C9.77767 5.75802 10.5646 6.0642 11.0939 6.54815C11.6371 7.02222 11.9087 7.63951 11.9087 8.4C11.9087 9.40741 11.4212 10.2222 10.4462 10.8444C9.47125 11.4667 7.96699 11.7778 5.93346 11.7778H0ZM2.29817 10.4444H5.91257C7.19397 10.4444 8.1202 10.2617 8.69127 9.89629C9.27625 9.52099 9.56875 8.99259 9.56875 8.31111C9.56875 7.64938 9.28322 7.1358 8.71216 6.77037C8.1411 6.40494 7.22183 6.22222 5.95435 6.22222H2.29817V10.4444ZM2.29817 4.93333H5.64096C6.72737 4.93333 7.53521 4.79506 8.06449 4.51852C8.59377 4.24198 8.85841 3.81728 8.85841 3.24444C8.85841 2.11852 7.78592 1.55556 5.64096 1.55556H2.29817V4.93333Z" fill="#609351"/>
<path d="M26.003 11.9852C24.3455 11.9852 22.9666 11.7432 21.8662 11.2593C20.7798 10.7654 19.965 10.0691 19.4218 9.17037C18.8926 8.27161 18.6279 7.21481 18.6279 6C18.6279 4.77531 18.8926 3.71852 19.4218 2.82963C19.965 1.93086 20.7798 1.23951 21.8662 0.755556C22.9666 0.261728 24.3455 0.0148148 26.003 0.0148148C27.6744 0.0148148 29.0533 0.261728 30.1397 0.755556C31.2261 1.23951 32.0339 1.93086 32.5632 2.82963C33.1064 3.71852 33.378 4.77531 33.378 6C33.378 7.21481 33.1064 8.27161 32.5632 9.17037C32.0339 10.0691 31.2261 10.7654 30.1397 11.2593C29.0533 11.7432 27.6744 11.9852 26.003 11.9852ZM26.003 10.6519C27.7022 10.6519 28.9558 10.2469 29.7636 9.43704C30.5854 8.61728 30.9963 7.4716 30.9963 6C30.9963 4.52839 30.5854 3.38765 29.7636 2.57778C28.9558 1.75802 27.7022 1.34815 26.003 1.34815C24.3037 1.34815 23.0432 1.75802 22.2214 2.57778C21.4136 3.38765 21.0097 4.52839 21.0097 6C21.0097 7.4716 21.4136 8.61728 22.2214 9.43704C23.0432 10.2469 24.3037 10.6519 26.003 10.6519Z" fill="#609351"/>
<path d="M44.2515 11.7778V1.61482H38.8404V0.222222H52.0026V1.61482H46.5915V11.7778H44.2515Z" fill="#609351"/>
<path d="M55.9017 11.7778V11.6889L61.2084 0.222222H64.969L70.2757 11.6889V11.7778H67.8313L63.2558 1.51111H62.7544L58.179 11.7778H55.9017ZM59.349 8.41481L59.9966 7.02222H66.0136L66.6613 8.41481H59.349Z" fill="#609351"/>
<path d="M77.4947 11.7778V0.222222H81.7568L88.2334 10.4593H88.7349V0.222222H90.8659V11.7778H86.6038L80.1272 1.54074H79.6257V11.7778H77.4947Z" fill="#609351"/>
<path d="M99.7308 11.7778V0.222222H102.071V11.7778H99.7308Z" fill="#609351"/>
<path d="M117.072 12C114.829 12 113.074 11.4765 111.807 10.4296C110.553 9.37284 109.926 7.8963 109.926 6C109.926 4.09383 110.56 2.61728 111.828 1.57037C113.095 0.523457 114.843 0 117.072 0C118.367 0 119.488 0.177778 120.435 0.533334C121.396 0.879012 122.155 1.3679 122.713 2C123.284 2.6321 123.625 3.37284 123.736 4.22222H121.375C121.236 3.34321 120.783 2.64198 120.017 2.11852C119.265 1.59506 118.269 1.33333 117.03 1.33333C115.512 1.33333 114.342 1.74321 113.52 2.56296C112.712 3.37284 112.308 4.51852 112.308 6C112.308 7.49136 112.719 8.64198 113.541 9.45185C114.376 10.2617 115.532 10.6667 117.009 10.6667C118.318 10.6667 119.342 10.3901 120.08 9.83704C120.832 9.28395 121.264 8.59753 121.375 7.77778H123.736C123.625 8.61728 123.284 9.35802 122.713 10C122.155 10.6321 121.403 11.1259 120.456 11.4815C119.509 11.8272 118.381 12 117.072 12Z" fill="#609351"/>
<path d="M129.626 11.7778V11.6889L134.933 0.222222H138.693L144 11.6889V11.7778H141.556L136.98 1.51111H136.479L131.903 11.7778H129.626ZM133.073 8.41481L133.721 7.02222H139.738L140.386 8.41481H133.073Z" fill="#609351"/>
</g>
</svg>
