<svg width="201" height="140" viewBox="0 0 201 140" fill="none" xmlns="http://www.w3.org/2000/svg">
<path id="Vector" d="M18.4775 128.676C7.24158 117.353 0.5 105 0.5 84.4118C0.5 48.3823 28.5899 16.4706 67.9157 0L78.0281 13.3823C40.9494 31.9118 33.0843 55.5882 30.8371 71.0294C36.455 67.9412 44.3202 66.9118 52.1854 67.9412C72.4101 70 88.1404 84.4118 88.1404 103.971C88.1404 113.235 83.6461 122.5 76.9045 129.706C69.0393 136.912 60.0506 140 48.8146 140C36.455 140 25.2191 134.853 18.4775 128.676ZM130.837 128.676C119.601 117.353 112.86 105 112.86 84.4118C112.86 48.3823 140.949 16.4706 180.275 0L190.388 13.3823C153.309 31.9118 145.444 55.5882 143.197 71.0294C148.815 67.9412 156.68 66.9118 164.545 67.9412C184.77 70 200.5 85.4412 200.5 103.971C200.5 113.235 196.006 122.5 189.264 129.706C181.399 136.912 172.41 140 161.174 140C148.815 140 137.579 134.853 130.837 128.676Z" fill="#F1F6F1"/>
</svg>
